<mxfile host="65bd71144e">
    <diagram id="6EXt89o7fHejoy0miyVt" name="Page-1">
        <mxGraphModel dx="927" dy="667" grid="1" gridSize="10" guides="1" tooltips="1" connect="1" arrows="1" fold="1" page="1" pageScale="1" pageWidth="850" pageHeight="1100" math="0" shadow="0">
            <root>
                <mxCell id="0"/>
                <mxCell id="1" parent="0"/>
                <mxCell id="304" value="" style="rounded=0;whiteSpace=wrap;html=1;fontFamily=JetBrains Mono;fontSource=https%3A%2F%2Ffonts.googleapis.com%2Fcss%3Ffamily%3DJetBrains%2BMono;strokeColor=none;" parent="1" vertex="1">
                    <mxGeometry x="80" y="190" width="720" height="1010" as="geometry"/>
                </mxCell>
                <mxCell id="117" value="" style="rounded=1;whiteSpace=wrap;html=1;arcSize=5;strokeWidth=2;fontFamily=JetBrains Mono;fontSource=https%3A%2F%2Ffonts.googleapis.com%2Fcss%3Ffamily%3DJetBrains%2BMono;fillColor=#e7e9f5;strokeColor=#e7e9f5;fontStyle=1" parent="1" vertex="1">
                    <mxGeometry x="240" y="400" width="161" height="160" as="geometry"/>
                </mxCell>
                <mxCell id="118" value="worker A" style="text;html=1;align=left;verticalAlign=middle;whiteSpace=wrap;rounded=0;strokeWidth=2;fontFamily=JetBrains Mono;fontSource=https%3A%2F%2Ffonts.googleapis.com%2Fcss%3Ffamily%3DJetBrains%2BMono;fontSize=14;fontStyle=1;fontColor=default;" parent="1" vertex="1">
                    <mxGeometry x="250.5" y="410" width="79.5" height="20" as="geometry"/>
                </mxCell>
                <mxCell id="120" value="" style="rounded=1;whiteSpace=wrap;html=1;arcSize=5;strokeWidth=2;fontFamily=JetBrains Mono;fontSource=https%3A%2F%2Ffonts.googleapis.com%2Fcss%3Ffamily%3DJetBrains%2BMono;fillColor=#e7e9f5;strokeColor=#e7e9f5;fontStyle=1" parent="1" vertex="1">
                    <mxGeometry x="599" y="400" width="161" height="160" as="geometry"/>
                </mxCell>
                <mxCell id="121" value="worker B" style="text;html=1;align=left;verticalAlign=middle;whiteSpace=wrap;rounded=0;strokeWidth=2;fontFamily=JetBrains Mono;fontSource=https%3A%2F%2Ffonts.googleapis.com%2Fcss%3Ffamily%3DJetBrains%2BMono;fontSize=14;fontStyle=1;fontColor=default;" parent="1" vertex="1">
                    <mxGeometry x="610" y="410" width="70" height="20" as="geometry"/>
                </mxCell>
                <mxCell id="126" style="edgeStyle=orthogonalEdgeStyle;html=1;strokeWidth=3;fillColor=#6a01ff;entryX=0;entryY=0.5;entryDx=0;entryDy=0;fontFamily=JetBrains Mono;fontSource=https%3A%2F%2Ffonts.googleapis.com%2Fcss%3Ffamily%3DJetBrains%2BMono;fontStyle=1;strokeColor=#6a01ff;" parent="1" source="139" target="140" edge="1">
                    <mxGeometry relative="1" as="geometry">
                        <mxPoint x="630" y="515" as="targetPoint"/>
                    </mxGeometry>
                </mxCell>
                <mxCell id="154" value="Sync RAM" style="edgeLabel;html=1;align=center;verticalAlign=middle;resizable=0;points=[];fontFamily=JetBrains Mono;fontColor=none;fontStyle=1" parent="126" vertex="1" connectable="0">
                    <mxGeometry x="-0.1002" relative="1" as="geometry">
                        <mxPoint x="12" as="offset"/>
                    </mxGeometry>
                </mxCell>
                <mxCell id="123" value="linux-vm" style="rounded=1;whiteSpace=wrap;html=1;arcSize=5;strokeWidth=2;fontFamily=JetBrains Mono;fontSource=https%3A%2F%2Ffonts.googleapis.com%2Fcss%3Ffamily%3DJetBrains%2BMono;fillColor=#5e6697;fontColor=#f5f5fb;strokeColor=#5e6697;fontStyle=1" parent="1" vertex="1">
                    <mxGeometry x="271" y="520" width="101" height="20" as="geometry"/>
                </mxCell>
                <mxCell id="125" value="linux-vm" style="rounded=1;whiteSpace=wrap;html=1;arcSize=5;strokeWidth=2;fontFamily=JetBrains Mono;fontSource=https%3A%2F%2Ffonts.googleapis.com%2Fcss%3Ffamily%3DJetBrains%2BMono;fillColor=#969dc4;fontColor=#f5f5fb;strokeColor=#969dc4;opacity=30;fontStyle=1" parent="1" vertex="1">
                    <mxGeometry x="629" y="520" width="101" height="20" as="geometry"/>
                </mxCell>
                <mxCell id="139" value="RAM" style="rounded=0;whiteSpace=wrap;html=1;fillColor=#6a01ff;fontColor=#f5f5fb;strokeColor=none;fontFamily=JetBrains Mono;fontSource=https%3A%2F%2Ffonts.googleapis.com%2Fcss%3Ffamily%3DJetBrains%2BMono;fontStyle=1" parent="1" vertex="1">
                    <mxGeometry x="270" y="440" width="101" height="65" as="geometry"/>
                </mxCell>
                <mxCell id="140" value="RAM" style="rounded=0;whiteSpace=wrap;html=1;fillColor=#969dc4;fontColor=#f5f5fb;fontFamily=JetBrains Mono;fontSource=https%3A%2F%2Ffonts.googleapis.com%2Fcss%3Ffamily%3DJetBrains%2BMono;fontStyle=1;strokeColor=#969dc4;" parent="1" vertex="1">
                    <mxGeometry x="629" y="440" width="101" height="60" as="geometry"/>
                </mxCell>
                <mxCell id="173" value="" style="rounded=0;whiteSpace=wrap;html=1;fillColor=#6a01ff;fontColor=#f5f5fb;strokeColor=none;fontFamily=JetBrains Mono;fontSource=https%3A%2F%2Ffonts.googleapis.com%2Fcss%3Ffamily%3DJetBrains%2BMono;fontStyle=1" parent="1" vertex="1">
                    <mxGeometry x="628" y="480" width="101" height="20" as="geometry"/>
                </mxCell>
                <mxCell id="177" style="edgeStyle=orthogonalEdgeStyle;html=1;entryX=0.5;entryY=1;entryDx=0;entryDy=0;strokeWidth=2;fillColor=#38cda9;strokeColor=#38cda9;" parent="1" target="123" edge="1">
                    <mxGeometry relative="1" as="geometry">
                        <mxPoint x="120" y="570" as="sourcePoint"/>
                    </mxGeometry>
                </mxCell>
                <mxCell id="179" value="Network &lt;br&gt;traffic" style="text;html=1;align=center;verticalAlign=middle;resizable=0;points=[];autosize=1;strokeColor=none;fillColor=none;fontFamily=JetBrains Mono;fontSource=https%3A%2F%2Ffonts.googleapis.com%2Fcss%3Ffamily%3DJetBrains%2BMono;fontStyle=1" parent="1" vertex="1">
                    <mxGeometry x="170" y="530" width="70" height="40" as="geometry"/>
                </mxCell>
                <mxCell id="182" value="&lt;font style=&quot;font-size: 42px;&quot;&gt;🧑‍💻&lt;/font&gt;" style="text;html=1;align=center;verticalAlign=middle;resizable=0;points=[];autosize=1;strokeColor=none;fillColor=none;fontStyle=1" parent="1" vertex="1">
                    <mxGeometry x="100" y="540" width="80" height="60" as="geometry"/>
                </mxCell>
                <mxCell id="183" value="" style="rounded=1;whiteSpace=wrap;html=1;arcSize=5;strokeWidth=2;fontFamily=JetBrains Mono;fontSource=https%3A%2F%2Ffonts.googleapis.com%2Fcss%3Ffamily%3DJetBrains%2BMono;fillColor=#e7e9f5;strokeColor=#e7e9f5;fontStyle=1" parent="1" vertex="1">
                    <mxGeometry x="240" y="600" width="161" height="160" as="geometry"/>
                </mxCell>
                <mxCell id="184" value="worker A" style="text;html=1;align=left;verticalAlign=middle;whiteSpace=wrap;rounded=0;strokeWidth=2;fontFamily=JetBrains Mono;fontSource=https%3A%2F%2Ffonts.googleapis.com%2Fcss%3Ffamily%3DJetBrains%2BMono;fontSize=14;fontStyle=1;fontColor=default;" parent="1" vertex="1">
                    <mxGeometry x="250.5" y="610" width="79.5" height="20" as="geometry"/>
                </mxCell>
                <mxCell id="185" value="" style="rounded=1;whiteSpace=wrap;html=1;arcSize=5;strokeWidth=2;fontFamily=JetBrains Mono;fontSource=https%3A%2F%2Ffonts.googleapis.com%2Fcss%3Ffamily%3DJetBrains%2BMono;fillColor=#e7e9f5;strokeColor=#e7e9f5;fontStyle=1" parent="1" vertex="1">
                    <mxGeometry x="599" y="600" width="161" height="160" as="geometry"/>
                </mxCell>
                <mxCell id="186" value="worker B" style="text;html=1;align=left;verticalAlign=middle;whiteSpace=wrap;rounded=0;strokeWidth=2;fontFamily=JetBrains Mono;fontSource=https%3A%2F%2Ffonts.googleapis.com%2Fcss%3Ffamily%3DJetBrains%2BMono;fontSize=14;fontStyle=1;fontColor=default;" parent="1" vertex="1">
                    <mxGeometry x="610" y="610" width="70" height="20" as="geometry"/>
                </mxCell>
                <mxCell id="187" style="edgeStyle=orthogonalEdgeStyle;html=1;strokeWidth=3;fillColor=#da47ff;entryX=0;entryY=0.5;entryDx=0;entryDy=0;fontFamily=JetBrains Mono;fontSource=https%3A%2F%2Ffonts.googleapis.com%2Fcss%3Ffamily%3DJetBrains%2BMono;fontStyle=1;strokeColor=#da47ff;" parent="1" source="191" target="192" edge="1">
                    <mxGeometry relative="1" as="geometry">
                        <mxPoint x="630" y="715" as="targetPoint"/>
                    </mxGeometry>
                </mxCell>
                <mxCell id="188" value="Sync Dirty pages" style="edgeLabel;html=1;align=center;verticalAlign=middle;resizable=0;points=[];fontFamily=JetBrains Mono;fontColor=none;fontStyle=1" parent="187" vertex="1" connectable="0">
                    <mxGeometry x="-0.1002" relative="1" as="geometry">
                        <mxPoint x="12" as="offset"/>
                    </mxGeometry>
                </mxCell>
                <mxCell id="189" value="linux-vm" style="rounded=1;whiteSpace=wrap;html=1;arcSize=5;strokeWidth=2;fontFamily=JetBrains Mono;fontSource=https%3A%2F%2Ffonts.googleapis.com%2Fcss%3Ffamily%3DJetBrains%2BMono;fillColor=#5e6697;fontColor=#f5f5fb;strokeColor=#5e6697;fontStyle=1" parent="1" vertex="1">
                    <mxGeometry x="271" y="720" width="101" height="20" as="geometry"/>
                </mxCell>
                <mxCell id="190" value="linux-vm" style="rounded=1;whiteSpace=wrap;html=1;arcSize=5;strokeWidth=2;fontFamily=JetBrains Mono;fontSource=https%3A%2F%2Ffonts.googleapis.com%2Fcss%3Ffamily%3DJetBrains%2BMono;fillColor=#969dc4;fontColor=#f5f5fb;strokeColor=#969dc4;opacity=30;fontStyle=1" parent="1" vertex="1">
                    <mxGeometry x="629" y="720" width="101" height="20" as="geometry"/>
                </mxCell>
                <mxCell id="191" value="RAM" style="rounded=0;whiteSpace=wrap;html=1;fillColor=#6a01ff;fontColor=#f5f5fb;strokeColor=none;fontFamily=JetBrains Mono;fontSource=https%3A%2F%2Ffonts.googleapis.com%2Fcss%3Ffamily%3DJetBrains%2BMono;fontStyle=1" parent="1" vertex="1">
                    <mxGeometry x="270" y="640" width="101" height="65" as="geometry"/>
                </mxCell>
                <mxCell id="192" value="RAM" style="rounded=0;whiteSpace=wrap;html=1;fillColor=#6a01ff;fontColor=#f5f5fb;fontFamily=JetBrains Mono;fontSource=https%3A%2F%2Ffonts.googleapis.com%2Fcss%3Ffamily%3DJetBrains%2BMono;fontStyle=1;strokeColor=#6a01ff;" parent="1" vertex="1">
                    <mxGeometry x="629" y="640" width="101" height="60" as="geometry"/>
                </mxCell>
                <mxCell id="194" style="edgeStyle=orthogonalEdgeStyle;html=1;entryX=0.5;entryY=1;entryDx=0;entryDy=0;strokeWidth=2;fillColor=#38cda9;strokeColor=#38cda9;" parent="1" target="189" edge="1">
                    <mxGeometry relative="1" as="geometry">
                        <mxPoint x="120" y="770" as="sourcePoint"/>
                    </mxGeometry>
                </mxCell>
                <mxCell id="195" value="Network &lt;br&gt;traffic" style="text;html=1;align=center;verticalAlign=middle;resizable=0;points=[];autosize=1;strokeColor=none;fillColor=none;fontFamily=JetBrains Mono;fontSource=https%3A%2F%2Ffonts.googleapis.com%2Fcss%3Ffamily%3DJetBrains%2BMono;fontStyle=1" parent="1" vertex="1">
                    <mxGeometry x="170" y="730" width="70" height="40" as="geometry"/>
                </mxCell>
                <mxCell id="196" value="&lt;font style=&quot;font-size: 42px;&quot;&gt;🧑‍💻&lt;/font&gt;" style="text;html=1;align=center;verticalAlign=middle;resizable=0;points=[];autosize=1;strokeColor=none;fillColor=none;fontStyle=1" parent="1" vertex="1">
                    <mxGeometry x="100" y="740" width="80" height="60" as="geometry"/>
                </mxCell>
                <mxCell id="205" value="" style="rounded=0;whiteSpace=wrap;html=1;fillColor=#da47ff;fontColor=#f5f5fb;strokeColor=none;fontFamily=JetBrains Mono;fontSource=https%3A%2F%2Ffonts.googleapis.com%2Fcss%3Ffamily%3DJetBrains%2BMono;fontStyle=1" parent="1" vertex="1">
                    <mxGeometry x="271" y="685" width="9" height="20" as="geometry"/>
                </mxCell>
                <mxCell id="206" value="" style="rounded=0;whiteSpace=wrap;html=1;fillColor=#da47ff;fontColor=#f5f5fb;strokeColor=none;fontFamily=JetBrains Mono;fontSource=https%3A%2F%2Ffonts.googleapis.com%2Fcss%3Ffamily%3DJetBrains%2BMono;fontStyle=1" parent="1" vertex="1">
                    <mxGeometry x="280" y="685" width="9" height="20" as="geometry"/>
                </mxCell>
                <mxCell id="207" value="" style="rounded=0;whiteSpace=wrap;html=1;fillColor=#da47ff;fontColor=#f5f5fb;strokeColor=none;fontFamily=JetBrains Mono;fontSource=https%3A%2F%2Ffonts.googleapis.com%2Fcss%3Ffamily%3DJetBrains%2BMono;fontStyle=1" parent="1" vertex="1">
                    <mxGeometry x="300" y="685" width="9" height="20" as="geometry"/>
                </mxCell>
                <mxCell id="208" value="" style="rounded=0;whiteSpace=wrap;html=1;fillColor=#da47ff;fontColor=#f5f5fb;strokeColor=none;fontFamily=JetBrains Mono;fontSource=https%3A%2F%2Ffonts.googleapis.com%2Fcss%3Ffamily%3DJetBrains%2BMono;fontStyle=1" parent="1" vertex="1">
                    <mxGeometry x="321" y="685" width="9" height="20" as="geometry"/>
                </mxCell>
                <mxCell id="209" value="" style="rounded=0;whiteSpace=wrap;html=1;fillColor=#da47ff;fontColor=#f5f5fb;strokeColor=none;fontFamily=JetBrains Mono;fontSource=https%3A%2F%2Ffonts.googleapis.com%2Fcss%3Ffamily%3DJetBrains%2BMono;fontStyle=1" parent="1" vertex="1">
                    <mxGeometry x="330" y="685" width="9" height="20" as="geometry"/>
                </mxCell>
                <mxCell id="210" value="" style="rounded=0;whiteSpace=wrap;html=1;fillColor=#da47ff;fontColor=#f5f5fb;strokeColor=none;fontFamily=JetBrains Mono;fontSource=https%3A%2F%2Ffonts.googleapis.com%2Fcss%3Ffamily%3DJetBrains%2BMono;fontStyle=1" parent="1" vertex="1">
                    <mxGeometry x="339" y="665" width="9" height="20" as="geometry"/>
                </mxCell>
                <mxCell id="211" value="" style="rounded=0;whiteSpace=wrap;html=1;fillColor=#da47ff;fontColor=#f5f5fb;strokeColor=none;fontFamily=JetBrains Mono;fontSource=https%3A%2F%2Ffonts.googleapis.com%2Fcss%3Ffamily%3DJetBrains%2BMono;fontStyle=1" parent="1" vertex="1">
                    <mxGeometry x="348" y="665" width="9" height="20" as="geometry"/>
                </mxCell>
                <mxCell id="212" value="" style="rounded=0;whiteSpace=wrap;html=1;fillColor=#da47ff;fontColor=#f5f5fb;strokeColor=none;fontFamily=JetBrains Mono;fontSource=https%3A%2F%2Ffonts.googleapis.com%2Fcss%3Ffamily%3DJetBrains%2BMono;fontStyle=1" parent="1" vertex="1">
                    <mxGeometry x="280" y="665" width="9" height="20" as="geometry"/>
                </mxCell>
                <mxCell id="213" value="" style="rounded=0;whiteSpace=wrap;html=1;fillColor=#da47ff;fontColor=#f5f5fb;strokeColor=none;fontFamily=JetBrains Mono;fontSource=https%3A%2F%2Ffonts.googleapis.com%2Fcss%3Ffamily%3DJetBrains%2BMono;fontStyle=1" parent="1" vertex="1">
                    <mxGeometry x="289" y="645" width="9" height="20" as="geometry"/>
                </mxCell>
                <mxCell id="214" value="" style="rounded=0;whiteSpace=wrap;html=1;fillColor=#da47ff;fontColor=#f5f5fb;strokeColor=none;fontFamily=JetBrains Mono;fontSource=https%3A%2F%2Ffonts.googleapis.com%2Fcss%3Ffamily%3DJetBrains%2BMono;fontStyle=1" parent="1" vertex="1">
                    <mxGeometry x="298" y="645" width="9" height="20" as="geometry"/>
                </mxCell>
                <mxCell id="215" value="" style="rounded=0;whiteSpace=wrap;html=1;fillColor=#da47ff;fontColor=#f5f5fb;strokeColor=none;fontFamily=JetBrains Mono;fontSource=https%3A%2F%2Ffonts.googleapis.com%2Fcss%3Ffamily%3DJetBrains%2BMono;fontStyle=1" parent="1" vertex="1">
                    <mxGeometry x="628" y="680" width="9" height="20" as="geometry"/>
                </mxCell>
                <mxCell id="216" value="" style="rounded=0;whiteSpace=wrap;html=1;fillColor=#da47ff;fontColor=#f5f5fb;strokeColor=none;fontFamily=JetBrains Mono;fontSource=https%3A%2F%2Ffonts.googleapis.com%2Fcss%3Ffamily%3DJetBrains%2BMono;fontStyle=1" parent="1" vertex="1">
                    <mxGeometry x="637" y="680" width="9" height="20" as="geometry"/>
                </mxCell>
                <mxCell id="217" value="" style="rounded=0;whiteSpace=wrap;html=1;fillColor=#da47ff;fontColor=#f5f5fb;strokeColor=none;fontFamily=JetBrains Mono;fontSource=https%3A%2F%2Ffonts.googleapis.com%2Fcss%3Ffamily%3DJetBrains%2BMono;fontStyle=1" parent="1" vertex="1">
                    <mxGeometry x="637" y="660" width="9" height="20" as="geometry"/>
                </mxCell>
                <mxCell id="218" value="" style="rounded=0;whiteSpace=wrap;html=1;fillColor=#da47ff;fontColor=#f5f5fb;strokeColor=none;fontFamily=JetBrains Mono;fontSource=https%3A%2F%2Ffonts.googleapis.com%2Fcss%3Ffamily%3DJetBrains%2BMono;fontStyle=1" parent="1" vertex="1">
                    <mxGeometry x="646" y="640" width="9" height="20" as="geometry"/>
                </mxCell>
                <mxCell id="219" value="" style="rounded=0;whiteSpace=wrap;html=1;fillColor=#da47ff;fontColor=#f5f5fb;strokeColor=none;fontFamily=JetBrains Mono;fontSource=https%3A%2F%2Ffonts.googleapis.com%2Fcss%3Ffamily%3DJetBrains%2BMono;fontStyle=1" parent="1" vertex="1">
                    <mxGeometry x="655" y="640" width="9" height="20" as="geometry"/>
                </mxCell>
                <mxCell id="220" value="" style="shape=image;verticalLabelPosition=bottom;labelBackgroundColor=default;verticalAlign=top;aspect=fixed;imageAspect=0;image=data:image/svg+xml,PHN2ZyB4bWxucz0iaHR0cDovL3d3dy53My5vcmcvMjAwMC9zdmciIGhlaWdodD0iMTUiIHdpZHRoPSIxNSIgdmlld0JveD0iMCAwIDE1IDE1Ij4KPHBhdGggZD0ibTYsMmE1LjUsNS41IDAgMSwwIDMsMCIgc3Ryb2tlLWRhc2hhcnJheT0iOCwzLjUiIHN0cm9rZS13aWR0aD0iMiIgc3Ryb2tlPSIjMDAwIiBmaWxsPSJub25lIi8+CjxwYXRoIGQ9Im0wLDcuNGg0LjRsLTIuMiwyLjVNOS4zLDQuNmwyLjItMy44LTMuNCwxTTkuMywxMC4ybDIuMiwzLjggMS0zLjQiLz4KPC9zdmc+;fontFamily=JetBrains Mono;fontSource=https%3A%2F%2Ffonts.googleapis.com%2Fcss%3Ffamily%3DJetBrains%2BMono;" parent="1" vertex="1">
                    <mxGeometry x="480" y="680" width="30" height="30" as="geometry"/>
                </mxCell>
                <mxCell id="221" value="" style="rounded=1;whiteSpace=wrap;html=1;arcSize=5;strokeWidth=2;fontFamily=JetBrains Mono;fontSource=https%3A%2F%2Ffonts.googleapis.com%2Fcss%3Ffamily%3DJetBrains%2BMono;fillColor=#e7e9f5;strokeColor=#e7e9f5;fontStyle=1" parent="1" vertex="1">
                    <mxGeometry x="240" y="200" width="161" height="160" as="geometry"/>
                </mxCell>
                <mxCell id="222" value="worker A" style="text;html=1;align=left;verticalAlign=middle;whiteSpace=wrap;rounded=0;strokeWidth=2;fontFamily=JetBrains Mono;fontSource=https%3A%2F%2Ffonts.googleapis.com%2Fcss%3Ffamily%3DJetBrains%2BMono;fontSize=14;fontStyle=1;fontColor=default;" parent="1" vertex="1">
                    <mxGeometry x="250.5" y="210" width="79.5" height="20" as="geometry"/>
                </mxCell>
                <mxCell id="223" value="" style="rounded=1;whiteSpace=wrap;html=1;arcSize=5;strokeWidth=2;fontFamily=JetBrains Mono;fontSource=https%3A%2F%2Ffonts.googleapis.com%2Fcss%3Ffamily%3DJetBrains%2BMono;fillColor=#e7e9f5;strokeColor=#e7e9f5;fontStyle=1" parent="1" vertex="1">
                    <mxGeometry x="599" y="200" width="161" height="160" as="geometry"/>
                </mxCell>
                <mxCell id="224" value="worker B" style="text;html=1;align=left;verticalAlign=middle;whiteSpace=wrap;rounded=0;strokeWidth=2;fontFamily=JetBrains Mono;fontSource=https%3A%2F%2Ffonts.googleapis.com%2Fcss%3Ffamily%3DJetBrains%2BMono;fontSize=14;fontStyle=1;fontColor=default;" parent="1" vertex="1">
                    <mxGeometry x="610" y="210" width="70" height="20" as="geometry"/>
                </mxCell>
                <mxCell id="227" value="linux-vm" style="rounded=1;whiteSpace=wrap;html=1;arcSize=5;strokeWidth=2;fontFamily=JetBrains Mono;fontSource=https%3A%2F%2Ffonts.googleapis.com%2Fcss%3Ffamily%3DJetBrains%2BMono;fillColor=#5e6697;fontColor=#f5f5fb;strokeColor=#5e6697;fontStyle=1" parent="1" vertex="1">
                    <mxGeometry x="271" y="320" width="101" height="20" as="geometry"/>
                </mxCell>
                <mxCell id="228" value="linux-vm" style="rounded=1;whiteSpace=wrap;html=1;arcSize=5;strokeWidth=2;fontFamily=JetBrains Mono;fontSource=https%3A%2F%2Ffonts.googleapis.com%2Fcss%3Ffamily%3DJetBrains%2BMono;fillColor=#969dc4;strokeColor=#969dc4;opacity=30;fontStyle=1;fontColor=#f5f5fb;" parent="1" vertex="1">
                    <mxGeometry x="629" y="320" width="101" height="20" as="geometry"/>
                </mxCell>
                <mxCell id="229" value="RAM" style="rounded=0;whiteSpace=wrap;html=1;fillColor=#6a01ff;fontColor=#f5f5fb;strokeColor=none;fontFamily=JetBrains Mono;fontSource=https%3A%2F%2Ffonts.googleapis.com%2Fcss%3Ffamily%3DJetBrains%2BMono;fontStyle=1" parent="1" vertex="1">
                    <mxGeometry x="270" y="240" width="101" height="65" as="geometry"/>
                </mxCell>
                <mxCell id="230" value="RAM" style="rounded=0;whiteSpace=wrap;html=1;fillColor=#969dc4;fontColor=#f5f5fb;fontFamily=JetBrains Mono;fontSource=https%3A%2F%2Ffonts.googleapis.com%2Fcss%3Ffamily%3DJetBrains%2BMono;fontStyle=1;strokeColor=#969dc4;" parent="1" vertex="1">
                    <mxGeometry x="629" y="240" width="101" height="60" as="geometry"/>
                </mxCell>
                <mxCell id="232" style="edgeStyle=orthogonalEdgeStyle;html=1;entryX=0.5;entryY=1;entryDx=0;entryDy=0;strokeWidth=2;fillColor=#38cda9;strokeColor=#38cda9;" parent="1" target="227" edge="1">
                    <mxGeometry relative="1" as="geometry">
                        <mxPoint x="120" y="370" as="sourcePoint"/>
                    </mxGeometry>
                </mxCell>
                <mxCell id="233" value="Network &lt;br&gt;traffic" style="text;html=1;align=center;verticalAlign=middle;resizable=0;points=[];autosize=1;strokeColor=none;fillColor=none;fontFamily=JetBrains Mono;fontSource=https%3A%2F%2Ffonts.googleapis.com%2Fcss%3Ffamily%3DJetBrains%2BMono;fontStyle=1" parent="1" vertex="1">
                    <mxGeometry x="170" y="330" width="70" height="40" as="geometry"/>
                </mxCell>
                <mxCell id="234" value="&lt;font style=&quot;font-size: 42px;&quot;&gt;🧑‍💻&lt;/font&gt;" style="text;html=1;align=center;verticalAlign=middle;resizable=0;points=[];autosize=1;strokeColor=none;fillColor=none;fontStyle=1" parent="1" vertex="1">
                    <mxGeometry x="100" y="340" width="80" height="60" as="geometry"/>
                </mxCell>
                <mxCell id="235" value="" style="rounded=1;whiteSpace=wrap;html=1;arcSize=5;strokeWidth=2;fontFamily=JetBrains Mono;fontSource=https%3A%2F%2Ffonts.googleapis.com%2Fcss%3Ffamily%3DJetBrains%2BMono;fillColor=#e7e9f5;strokeColor=#e7e9f5;fontStyle=1" parent="1" vertex="1">
                    <mxGeometry x="240" y="800" width="161" height="160" as="geometry"/>
                </mxCell>
                <mxCell id="236" value="worker A" style="text;html=1;align=left;verticalAlign=middle;whiteSpace=wrap;rounded=0;strokeWidth=2;fontFamily=JetBrains Mono;fontSource=https%3A%2F%2Ffonts.googleapis.com%2Fcss%3Ffamily%3DJetBrains%2BMono;fontSize=14;fontStyle=1;fontColor=default;" parent="1" vertex="1">
                    <mxGeometry x="250.5" y="810" width="79.5" height="20" as="geometry"/>
                </mxCell>
                <mxCell id="237" value="" style="rounded=1;whiteSpace=wrap;html=1;arcSize=5;strokeWidth=2;fontFamily=JetBrains Mono;fontSource=https%3A%2F%2Ffonts.googleapis.com%2Fcss%3Ffamily%3DJetBrains%2BMono;fillColor=#e7e9f5;strokeColor=#e7e9f5;fontStyle=1" parent="1" vertex="1">
                    <mxGeometry x="599" y="800" width="161" height="160" as="geometry"/>
                </mxCell>
                <mxCell id="238" value="worker B" style="text;html=1;align=left;verticalAlign=middle;whiteSpace=wrap;rounded=0;strokeWidth=2;fontFamily=JetBrains Mono;fontSource=https%3A%2F%2Ffonts.googleapis.com%2Fcss%3Ffamily%3DJetBrains%2BMono;fontSize=14;fontStyle=1;fontColor=default;" parent="1" vertex="1">
                    <mxGeometry x="610" y="810" width="70" height="20" as="geometry"/>
                </mxCell>
                <mxCell id="239" style="edgeStyle=orthogonalEdgeStyle;html=1;strokeWidth=3;fillColor=#38cda9;entryX=0;entryY=0.5;entryDx=0;entryDy=0;fontFamily=JetBrains Mono;fontSource=https%3A%2F%2Ffonts.googleapis.com%2Fcss%3Ffamily%3DJetBrains%2BMono;fontStyle=1;strokeColor=#38cda9;" parent="1" source="243" target="244" edge="1">
                    <mxGeometry relative="1" as="geometry">
                        <mxPoint x="630" y="915" as="targetPoint"/>
                    </mxGeometry>
                </mxCell>
                <mxCell id="240" value="Switchover" style="edgeLabel;html=1;align=center;verticalAlign=middle;resizable=0;points=[];fontFamily=JetBrains Mono;fontColor=none;fontStyle=1" parent="239" vertex="1" connectable="0">
                    <mxGeometry x="-0.1002" relative="1" as="geometry">
                        <mxPoint x="12" as="offset"/>
                    </mxGeometry>
                </mxCell>
                <mxCell id="241" value="linux-vm" style="rounded=1;whiteSpace=wrap;html=1;arcSize=5;strokeWidth=2;fontFamily=JetBrains Mono;fontSource=https%3A%2F%2Ffonts.googleapis.com%2Fcss%3Ffamily%3DJetBrains%2BMono;fillColor=#969dc4;fontColor=#f5f5fb;strokeColor=#969dc4;fontStyle=1;opacity=30;" parent="1" vertex="1">
                    <mxGeometry x="271" y="920" width="101" height="20" as="geometry"/>
                </mxCell>
                <mxCell id="242" value="linux-vm" style="rounded=1;whiteSpace=wrap;html=1;arcSize=5;strokeWidth=2;fontFamily=JetBrains Mono;fontSource=https%3A%2F%2Ffonts.googleapis.com%2Fcss%3Ffamily%3DJetBrains%2BMono;fillColor=#969dc4;fontColor=#f5f5fb;strokeColor=#969dc4;opacity=30;fontStyle=1" parent="1" vertex="1">
                    <mxGeometry x="629" y="920" width="101" height="20" as="geometry"/>
                </mxCell>
                <mxCell id="243" value="RAM" style="rounded=0;whiteSpace=wrap;html=1;fillColor=#6a01ff;fontColor=#f5f5fb;strokeColor=none;fontFamily=JetBrains Mono;fontSource=https%3A%2F%2Ffonts.googleapis.com%2Fcss%3Ffamily%3DJetBrains%2BMono;fontStyle=1" parent="1" vertex="1">
                    <mxGeometry x="270" y="840" width="101" height="65" as="geometry"/>
                </mxCell>
                <mxCell id="244" value="RAM" style="rounded=0;whiteSpace=wrap;html=1;fillColor=#6a01ff;fontColor=#f5f5fb;fontFamily=JetBrains Mono;fontSource=https%3A%2F%2Ffonts.googleapis.com%2Fcss%3Ffamily%3DJetBrains%2BMono;fontStyle=1;strokeColor=#6a01ff;" parent="1" vertex="1">
                    <mxGeometry x="629" y="840" width="101" height="60" as="geometry"/>
                </mxCell>
                <mxCell id="245" style="edgeStyle=orthogonalEdgeStyle;html=1;entryX=0.5;entryY=1;entryDx=0;entryDy=0;strokeWidth=2;fillColor=#38cda9;strokeColor=#38cda9;" parent="1" target="241" edge="1">
                    <mxGeometry relative="1" as="geometry">
                        <mxPoint x="120" y="970" as="sourcePoint"/>
                    </mxGeometry>
                </mxCell>
                <mxCell id="246" value="Network &lt;br&gt;traffic" style="text;html=1;align=center;verticalAlign=middle;resizable=0;points=[];autosize=1;strokeColor=none;fillColor=none;fontFamily=JetBrains Mono;fontSource=https%3A%2F%2Ffonts.googleapis.com%2Fcss%3Ffamily%3DJetBrains%2BMono;fontStyle=1" parent="1" vertex="1">
                    <mxGeometry x="170" y="930" width="70" height="40" as="geometry"/>
                </mxCell>
                <mxCell id="247" value="&lt;font style=&quot;font-size: 42px;&quot;&gt;🧑‍💻&lt;/font&gt;" style="text;html=1;align=center;verticalAlign=middle;resizable=0;points=[];autosize=1;strokeColor=none;fillColor=none;fontStyle=1" parent="1" vertex="1">
                    <mxGeometry x="100" y="940" width="80" height="60" as="geometry"/>
                </mxCell>
                <mxCell id="248" value="" style="rounded=0;whiteSpace=wrap;html=1;fillColor=#da47ff;fontColor=#f5f5fb;strokeColor=none;fontFamily=JetBrains Mono;fontSource=https%3A%2F%2Ffonts.googleapis.com%2Fcss%3Ffamily%3DJetBrains%2BMono;fontStyle=1" parent="1" vertex="1">
                    <mxGeometry x="271" y="885" width="9" height="20" as="geometry"/>
                </mxCell>
                <mxCell id="249" value="" style="rounded=0;whiteSpace=wrap;html=1;fillColor=#da47ff;fontColor=#f5f5fb;strokeColor=none;fontFamily=JetBrains Mono;fontSource=https%3A%2F%2Ffonts.googleapis.com%2Fcss%3Ffamily%3DJetBrains%2BMono;fontStyle=1" parent="1" vertex="1">
                    <mxGeometry x="280" y="885" width="9" height="20" as="geometry"/>
                </mxCell>
                <mxCell id="250" value="" style="rounded=0;whiteSpace=wrap;html=1;fillColor=#da47ff;fontColor=#f5f5fb;strokeColor=none;fontFamily=JetBrains Mono;fontSource=https%3A%2F%2Ffonts.googleapis.com%2Fcss%3Ffamily%3DJetBrains%2BMono;fontStyle=1" parent="1" vertex="1">
                    <mxGeometry x="300" y="885" width="9" height="20" as="geometry"/>
                </mxCell>
                <mxCell id="251" value="" style="rounded=0;whiteSpace=wrap;html=1;fillColor=#da47ff;fontColor=#f5f5fb;strokeColor=none;fontFamily=JetBrains Mono;fontSource=https%3A%2F%2Ffonts.googleapis.com%2Fcss%3Ffamily%3DJetBrains%2BMono;fontStyle=1" parent="1" vertex="1">
                    <mxGeometry x="321" y="885" width="9" height="20" as="geometry"/>
                </mxCell>
                <mxCell id="252" value="" style="rounded=0;whiteSpace=wrap;html=1;fillColor=#da47ff;fontColor=#f5f5fb;strokeColor=none;fontFamily=JetBrains Mono;fontSource=https%3A%2F%2Ffonts.googleapis.com%2Fcss%3Ffamily%3DJetBrains%2BMono;fontStyle=1" parent="1" vertex="1">
                    <mxGeometry x="330" y="885" width="9" height="20" as="geometry"/>
                </mxCell>
                <mxCell id="253" value="" style="rounded=0;whiteSpace=wrap;html=1;fillColor=#da47ff;fontColor=#f5f5fb;strokeColor=none;fontFamily=JetBrains Mono;fontSource=https%3A%2F%2Ffonts.googleapis.com%2Fcss%3Ffamily%3DJetBrains%2BMono;fontStyle=1" parent="1" vertex="1">
                    <mxGeometry x="339" y="865" width="9" height="20" as="geometry"/>
                </mxCell>
                <mxCell id="254" value="" style="rounded=0;whiteSpace=wrap;html=1;fillColor=#da47ff;fontColor=#f5f5fb;strokeColor=none;fontFamily=JetBrains Mono;fontSource=https%3A%2F%2Ffonts.googleapis.com%2Fcss%3Ffamily%3DJetBrains%2BMono;fontStyle=1" parent="1" vertex="1">
                    <mxGeometry x="348" y="865" width="9" height="20" as="geometry"/>
                </mxCell>
                <mxCell id="255" value="" style="rounded=0;whiteSpace=wrap;html=1;fillColor=#da47ff;fontColor=#f5f5fb;strokeColor=none;fontFamily=JetBrains Mono;fontSource=https%3A%2F%2Ffonts.googleapis.com%2Fcss%3Ffamily%3DJetBrains%2BMono;fontStyle=1" parent="1" vertex="1">
                    <mxGeometry x="280" y="865" width="9" height="20" as="geometry"/>
                </mxCell>
                <mxCell id="256" value="" style="rounded=0;whiteSpace=wrap;html=1;fillColor=#da47ff;fontColor=#f5f5fb;strokeColor=none;fontFamily=JetBrains Mono;fontSource=https%3A%2F%2Ffonts.googleapis.com%2Fcss%3Ffamily%3DJetBrains%2BMono;fontStyle=1" parent="1" vertex="1">
                    <mxGeometry x="289" y="845" width="9" height="20" as="geometry"/>
                </mxCell>
                <mxCell id="257" value="" style="rounded=0;whiteSpace=wrap;html=1;fillColor=#da47ff;fontColor=#f5f5fb;strokeColor=none;fontFamily=JetBrains Mono;fontSource=https%3A%2F%2Ffonts.googleapis.com%2Fcss%3Ffamily%3DJetBrains%2BMono;fontStyle=1" parent="1" vertex="1">
                    <mxGeometry x="298" y="845" width="9" height="20" as="geometry"/>
                </mxCell>
                <mxCell id="258" value="" style="rounded=0;whiteSpace=wrap;html=1;fillColor=#da47ff;fontColor=#f5f5fb;strokeColor=none;fontFamily=JetBrains Mono;fontSource=https%3A%2F%2Ffonts.googleapis.com%2Fcss%3Ffamily%3DJetBrains%2BMono;fontStyle=1" parent="1" vertex="1">
                    <mxGeometry x="628" y="880" width="9" height="20" as="geometry"/>
                </mxCell>
                <mxCell id="259" value="" style="rounded=0;whiteSpace=wrap;html=1;fillColor=#da47ff;fontColor=#f5f5fb;strokeColor=none;fontFamily=JetBrains Mono;fontSource=https%3A%2F%2Ffonts.googleapis.com%2Fcss%3Ffamily%3DJetBrains%2BMono;fontStyle=1" parent="1" vertex="1">
                    <mxGeometry x="637" y="880" width="9" height="20" as="geometry"/>
                </mxCell>
                <mxCell id="260" value="" style="rounded=0;whiteSpace=wrap;html=1;fillColor=#da47ff;fontColor=#f5f5fb;strokeColor=none;fontFamily=JetBrains Mono;fontSource=https%3A%2F%2Ffonts.googleapis.com%2Fcss%3Ffamily%3DJetBrains%2BMono;fontStyle=1" parent="1" vertex="1">
                    <mxGeometry x="637" y="860" width="9" height="20" as="geometry"/>
                </mxCell>
                <mxCell id="261" value="" style="rounded=0;whiteSpace=wrap;html=1;fillColor=#da47ff;fontColor=#f5f5fb;strokeColor=none;fontFamily=JetBrains Mono;fontSource=https%3A%2F%2Ffonts.googleapis.com%2Fcss%3Ffamily%3DJetBrains%2BMono;fontStyle=1" parent="1" vertex="1">
                    <mxGeometry x="646" y="840" width="9" height="20" as="geometry"/>
                </mxCell>
                <mxCell id="262" value="" style="rounded=0;whiteSpace=wrap;html=1;fillColor=#da47ff;fontColor=#f5f5fb;strokeColor=none;fontFamily=JetBrains Mono;fontSource=https%3A%2F%2Ffonts.googleapis.com%2Fcss%3Ffamily%3DJetBrains%2BMono;fontStyle=1" parent="1" vertex="1">
                    <mxGeometry x="655" y="840" width="9" height="20" as="geometry"/>
                </mxCell>
                <mxCell id="266" value="" style="rounded=0;whiteSpace=wrap;html=1;fillColor=#da47ff;fontColor=#f5f5fb;strokeColor=none;fontFamily=JetBrains Mono;fontSource=https%3A%2F%2Ffonts.googleapis.com%2Fcss%3Ffamily%3DJetBrains%2BMono;fontStyle=1" parent="1" vertex="1">
                    <mxGeometry x="655" y="880" width="9" height="20" as="geometry"/>
                </mxCell>
                <mxCell id="267" value="" style="rounded=0;whiteSpace=wrap;html=1;fillColor=#da47ff;fontColor=#f5f5fb;strokeColor=none;fontFamily=JetBrains Mono;fontSource=https%3A%2F%2Ffonts.googleapis.com%2Fcss%3Ffamily%3DJetBrains%2BMono;fontStyle=1" parent="1" vertex="1">
                    <mxGeometry x="676" y="880" width="9" height="20" as="geometry"/>
                </mxCell>
                <mxCell id="268" value="" style="rounded=0;whiteSpace=wrap;html=1;fillColor=#da47ff;fontColor=#f5f5fb;strokeColor=none;fontFamily=JetBrains Mono;fontSource=https%3A%2F%2Ffonts.googleapis.com%2Fcss%3Ffamily%3DJetBrains%2BMono;fontStyle=1" parent="1" vertex="1">
                    <mxGeometry x="685" y="880" width="9" height="20" as="geometry"/>
                </mxCell>
                <mxCell id="269" value="" style="rounded=0;whiteSpace=wrap;html=1;fillColor=#da47ff;fontColor=#f5f5fb;strokeColor=none;fontFamily=JetBrains Mono;fontSource=https%3A%2F%2Ffonts.googleapis.com%2Fcss%3Ffamily%3DJetBrains%2BMono;fontStyle=1" parent="1" vertex="1">
                    <mxGeometry x="694" y="860" width="9" height="20" as="geometry"/>
                </mxCell>
                <mxCell id="270" value="" style="rounded=0;whiteSpace=wrap;html=1;fillColor=#da47ff;fontColor=#f5f5fb;strokeColor=none;fontFamily=JetBrains Mono;fontSource=https%3A%2F%2Ffonts.googleapis.com%2Fcss%3Ffamily%3DJetBrains%2BMono;fontStyle=1" parent="1" vertex="1">
                    <mxGeometry x="703" y="860" width="9" height="20" as="geometry"/>
                </mxCell>
                <mxCell id="271" value="" style="rounded=1;whiteSpace=wrap;html=1;arcSize=5;strokeWidth=2;fontFamily=JetBrains Mono;fontSource=https%3A%2F%2Ffonts.googleapis.com%2Fcss%3Ffamily%3DJetBrains%2BMono;fillColor=#e7e9f5;strokeColor=#e7e9f5;fontStyle=1" parent="1" vertex="1">
                    <mxGeometry x="240" y="1000" width="161" height="160" as="geometry"/>
                </mxCell>
                <mxCell id="272" value="worker A" style="text;html=1;align=left;verticalAlign=middle;whiteSpace=wrap;rounded=0;strokeWidth=2;fontFamily=JetBrains Mono;fontSource=https%3A%2F%2Ffonts.googleapis.com%2Fcss%3Ffamily%3DJetBrains%2BMono;fontSize=14;fontStyle=1;fontColor=default;" parent="1" vertex="1">
                    <mxGeometry x="250.5" y="1010" width="79.5" height="20" as="geometry"/>
                </mxCell>
                <mxCell id="273" value="" style="rounded=1;whiteSpace=wrap;html=1;arcSize=5;strokeWidth=2;fontFamily=JetBrains Mono;fontSource=https%3A%2F%2Ffonts.googleapis.com%2Fcss%3Ffamily%3DJetBrains%2BMono;fillColor=#e7e9f5;strokeColor=#e7e9f5;fontStyle=1" parent="1" vertex="1">
                    <mxGeometry x="599" y="1000" width="161" height="160" as="geometry"/>
                </mxCell>
                <mxCell id="274" value="worker B" style="text;html=1;align=left;verticalAlign=middle;whiteSpace=wrap;rounded=0;strokeWidth=2;fontFamily=JetBrains Mono;fontSource=https%3A%2F%2Ffonts.googleapis.com%2Fcss%3Ffamily%3DJetBrains%2BMono;fontSize=14;fontStyle=1;fontColor=default;" parent="1" vertex="1">
                    <mxGeometry x="610" y="1010" width="70" height="20" as="geometry"/>
                </mxCell>
                <mxCell id="277" value="linux-vm" style="rounded=1;whiteSpace=wrap;html=1;arcSize=5;strokeWidth=2;fontFamily=JetBrains Mono;fontSource=https%3A%2F%2Ffonts.googleapis.com%2Fcss%3Ffamily%3DJetBrains%2BMono;fillColor=#969dc4;fontColor=#f5f5fb;strokeColor=#969dc4;fontStyle=1;opacity=30;" parent="1" vertex="1">
                    <mxGeometry x="271" y="1120" width="101" height="20" as="geometry"/>
                </mxCell>
                <mxCell id="278" value="linux-vm" style="rounded=1;whiteSpace=wrap;html=1;arcSize=5;strokeWidth=2;fontFamily=JetBrains Mono;fontSource=https%3A%2F%2Ffonts.googleapis.com%2Fcss%3Ffamily%3DJetBrains%2BMono;fillColor=#5e6697;fontColor=#f5f5fb;strokeColor=#5e6697;fontStyle=1" parent="1" vertex="1">
                    <mxGeometry x="629" y="1120" width="101" height="20" as="geometry"/>
                </mxCell>
                <mxCell id="280" value="RAM" style="rounded=0;whiteSpace=wrap;html=1;fillColor=#6a01ff;fontColor=#f5f5fb;fontFamily=JetBrains Mono;fontSource=https%3A%2F%2Ffonts.googleapis.com%2Fcss%3Ffamily%3DJetBrains%2BMono;fontStyle=1;strokeColor=#6a01ff;" parent="1" vertex="1">
                    <mxGeometry x="629" y="1040" width="101" height="60" as="geometry"/>
                </mxCell>
                <mxCell id="281" style="edgeStyle=orthogonalEdgeStyle;html=1;entryX=0.5;entryY=1;entryDx=0;entryDy=0;strokeWidth=2;fillColor=#38cda9;strokeColor=#38cda9;" parent="1" target="278" edge="1">
                    <mxGeometry relative="1" as="geometry">
                        <mxPoint x="120" y="1170" as="sourcePoint"/>
                    </mxGeometry>
                </mxCell>
                <mxCell id="282" value="Network &lt;br&gt;traffic" style="text;html=1;align=center;verticalAlign=middle;resizable=0;points=[];autosize=1;strokeColor=none;fillColor=none;fontFamily=JetBrains Mono;fontSource=https%3A%2F%2Ffonts.googleapis.com%2Fcss%3Ffamily%3DJetBrains%2BMono;fontStyle=1" parent="1" vertex="1">
                    <mxGeometry x="170" y="1130" width="70" height="40" as="geometry"/>
                </mxCell>
                <mxCell id="283" value="&lt;font style=&quot;font-size: 42px;&quot;&gt;🧑‍💻&lt;/font&gt;" style="text;html=1;align=center;verticalAlign=middle;resizable=0;points=[];autosize=1;strokeColor=none;fillColor=none;fontStyle=1" parent="1" vertex="1">
                    <mxGeometry x="100" y="1140" width="80" height="60" as="geometry"/>
                </mxCell>
                <mxCell id="294" value="" style="rounded=0;whiteSpace=wrap;html=1;fillColor=#da47ff;fontColor=#f5f5fb;strokeColor=none;fontFamily=JetBrains Mono;fontSource=https%3A%2F%2Ffonts.googleapis.com%2Fcss%3Ffamily%3DJetBrains%2BMono;fontStyle=1" parent="1" vertex="1">
                    <mxGeometry x="628" y="1080" width="9" height="20" as="geometry"/>
                </mxCell>
                <mxCell id="295" value="" style="rounded=0;whiteSpace=wrap;html=1;fillColor=#da47ff;fontColor=#f5f5fb;strokeColor=none;fontFamily=JetBrains Mono;fontSource=https%3A%2F%2Ffonts.googleapis.com%2Fcss%3Ffamily%3DJetBrains%2BMono;fontStyle=1" parent="1" vertex="1">
                    <mxGeometry x="637" y="1080" width="9" height="20" as="geometry"/>
                </mxCell>
                <mxCell id="296" value="" style="rounded=0;whiteSpace=wrap;html=1;fillColor=#da47ff;fontColor=#f5f5fb;strokeColor=none;fontFamily=JetBrains Mono;fontSource=https%3A%2F%2Ffonts.googleapis.com%2Fcss%3Ffamily%3DJetBrains%2BMono;fontStyle=1" parent="1" vertex="1">
                    <mxGeometry x="637" y="1060" width="9" height="20" as="geometry"/>
                </mxCell>
                <mxCell id="297" value="" style="rounded=0;whiteSpace=wrap;html=1;fillColor=#da47ff;fontColor=#f5f5fb;strokeColor=none;fontFamily=JetBrains Mono;fontSource=https%3A%2F%2Ffonts.googleapis.com%2Fcss%3Ffamily%3DJetBrains%2BMono;fontStyle=1" parent="1" vertex="1">
                    <mxGeometry x="646" y="1040" width="9" height="20" as="geometry"/>
                </mxCell>
                <mxCell id="298" value="" style="rounded=0;whiteSpace=wrap;html=1;fillColor=#da47ff;fontColor=#f5f5fb;strokeColor=none;fontFamily=JetBrains Mono;fontSource=https%3A%2F%2Ffonts.googleapis.com%2Fcss%3Ffamily%3DJetBrains%2BMono;fontStyle=1" parent="1" vertex="1">
                    <mxGeometry x="655" y="1040" width="9" height="20" as="geometry"/>
                </mxCell>
                <mxCell id="299" value="" style="rounded=0;whiteSpace=wrap;html=1;fillColor=#da47ff;fontColor=#f5f5fb;strokeColor=none;fontFamily=JetBrains Mono;fontSource=https%3A%2F%2Ffonts.googleapis.com%2Fcss%3Ffamily%3DJetBrains%2BMono;fontStyle=1" parent="1" vertex="1">
                    <mxGeometry x="655" y="1080" width="9" height="20" as="geometry"/>
                </mxCell>
                <mxCell id="300" value="" style="rounded=0;whiteSpace=wrap;html=1;fillColor=#da47ff;fontColor=#f5f5fb;strokeColor=none;fontFamily=JetBrains Mono;fontSource=https%3A%2F%2Ffonts.googleapis.com%2Fcss%3Ffamily%3DJetBrains%2BMono;fontStyle=1" parent="1" vertex="1">
                    <mxGeometry x="676" y="1080" width="9" height="20" as="geometry"/>
                </mxCell>
                <mxCell id="301" value="" style="rounded=0;whiteSpace=wrap;html=1;fillColor=#da47ff;fontColor=#f5f5fb;strokeColor=none;fontFamily=JetBrains Mono;fontSource=https%3A%2F%2Ffonts.googleapis.com%2Fcss%3Ffamily%3DJetBrains%2BMono;fontStyle=1" parent="1" vertex="1">
                    <mxGeometry x="685" y="1080" width="9" height="20" as="geometry"/>
                </mxCell>
                <mxCell id="302" value="" style="rounded=0;whiteSpace=wrap;html=1;fillColor=#da47ff;fontColor=#f5f5fb;strokeColor=none;fontFamily=JetBrains Mono;fontSource=https%3A%2F%2Ffonts.googleapis.com%2Fcss%3Ffamily%3DJetBrains%2BMono;fontStyle=1" parent="1" vertex="1">
                    <mxGeometry x="694" y="1060" width="9" height="20" as="geometry"/>
                </mxCell>
                <mxCell id="303" value="" style="rounded=0;whiteSpace=wrap;html=1;fillColor=#da47ff;fontColor=#f5f5fb;strokeColor=none;fontFamily=JetBrains Mono;fontSource=https%3A%2F%2Ffonts.googleapis.com%2Fcss%3Ffamily%3DJetBrains%2BMono;fontStyle=1" parent="1" vertex="1">
                    <mxGeometry x="703" y="1060" width="9" height="20" as="geometry"/>
                </mxCell>
                <mxCell id="309" style="edgeStyle=none;html=1;entryX=0;entryY=0.5;entryDx=0;entryDy=0;fillColor=#da47ff;strokeColor=#da47ff;" parent="1" source="306" target="213" edge="1">
                    <mxGeometry relative="1" as="geometry"/>
                </mxCell>
                <mxCell id="306" value="&lt;span style=&quot;font-family: &amp;quot;JetBrains Mono&amp;quot;; font-size: 11px; font-weight: 700; background-color: rgb(255, 255, 255);&quot;&gt;Dirty pages&lt;/span&gt;" style="text;html=1;align=center;verticalAlign=middle;resizable=0;points=[];autosize=1;strokeColor=none;fillColor=none;" parent="1" vertex="1">
                    <mxGeometry x="120" y="640" width="100" height="30" as="geometry"/>
                </mxCell>
                <mxCell id="310" value="&lt;span style=&quot;font-family: &amp;quot;JetBrains Mono&amp;quot;; font-size: 11px; font-weight: 700; background-color: rgb(255, 255, 255);&quot;&gt;FREEZE&lt;/span&gt;" style="text;html=1;align=center;verticalAlign=middle;resizable=0;points=[];autosize=1;strokeColor=none;fillColor=none;" parent="1" vertex="1">
                    <mxGeometry x="291.5" y="860" width="60" height="30" as="geometry"/>
                </mxCell>
            </root>
        </mxGraphModel>
    </diagram>
</mxfile>
